<svg xmlns="http://www.w3.org/2000/svg" xmlns:xlink="http://www.w3.org/1999/xlink" style="isolation:isolate" width="700" height="550" viewBox="0 0 700 550">
<defs>
<clipPath id="_clipPath_ufUKWNh03Q0ow8cg9bS2G9dNbT4C2wP3">
<rect width="700" height="550"/>
</clipPath>
</defs
><g clip-path="url(#_clipPath_ufUKWNh03Q0ow8cg9bS2G9dNbT4C2wP3)">
<path fill="none" fill-rule="evenodd" stroke="#000" stroke-linecap="square" stroke-linejoin="miter" stroke-miterlimit="3" stroke-width="1" 
d= "
 M169 36 L134 40  L91 52  L55 74 L43 85  L28 107  L16 139 
        L6 167  L8 202  L18 225  L32 245  L16 254 L24 271 
         L81 288  L113 292  L179 259  L164 225  L135 191
        L92 190 M92 190 L73 203 M73 203 L52 230 M52 230 L32 245 M92 190 L90 162 M90 162 L88 128
        M88 128 L84 96 M84 96 L65 79 M65 79 L43 85 M135 191 L144 163 M144 163 L167 127 M167 127 L196 103
        M196 103 L223 90 M223 90 L256 91 M256 91 L273 106 M273 106 L274 133 M274 133 L249 166 M249 166 L279 158
        M279 158 L294 164 M294 164 L302 183 M169 36 L208 43 M208 43 L236 56 M236 56 L263 76 M263 76 L287 99
        M287 99 L304 136 M304 136 L302 183 M302 183 L296 223 M296 223 L274 253 M274 253 L261 274 M261 274 L257 299
        M293 105 L310 96 M310 96 L360 75 M360 75 L395 74 M395 74 L431 76 M431 76 L461 75 M461 75 L487 31
        M487 31 L497 45 M497 45 L510 34 M510 34 L511 16 M511 16 L525 6 M525 6 L545 64 M545 64 L556 49
        M556 49 L568 100 M81 288 L113 320 M113 320 L101 357 M101 357 L95 397 M95 397 L99 441 M99 441 L116 473
        M116 473 L135 492 M135 492 L155 506 M155 506 L202 522 M202 522 L255 529 M255 529 L306 521 M306 521 L410 478
        M410 478 L480 443 M480 443 L545 414 M545 414 L601 390 M601 390 L619 377 M619 377 L641 358 M641 358 L656 329
        M656 329 L649 287 M649 287 L650 272 M650 272 L634 255 M634 255 L631 242 M631 242 L628 234 M628 234 L628 213
        M628 213 L605 203 M605 203 L601 177 M601 177 L588 165 M588 165 L569 162 M569 162 L565 153 M565 153 L559 137
        M559 137 L568 100 M261 274 L299 304 M299 304 L338 322 M338 322 L380 354  M380 354 L427 365 M427 365 L464 394
        M464 394 L517 389 M517 389 L552 395 M552 395 L574 377 M574 377 L610 371 M610 371 L621 336 M621 336 L642 326
        M642 326 L641 304 M641 304 L648 282 M274 253 L318 257 M318 257 L356 295 M356 295 L398 298 M398 298 L438 340
         M438 340 L478 337 M478 337 L517 363 M517 363 L538 338 M538 338 L571 351 M571 351 L589 318 M589 318 L618 324
         M618 324 L616 277 M616 277 L629 280 M629 280 L631 242 M356 295 L338 322 M438 340 L427 365 M517 363 L517 389
        M571 351 L574 377 M618 324 L621 336 M629 280 L641 304 M438 340 L461 295 M461 295 L463 232 M463 232 L422 188
        M422 188 L360 161 M360 161 L308 157 M463 232 L493 217 M493 217 L526 217 M526 217 L589 318 M526 217 L522 175
        M522 175 L554 184 M554 184 L629 280 M522 175 L489 139 M489 139 L448 117 M448 117 L409 105 M409 105 L338 95
        M338 95 L310 96 M554 184 L550 156 M550 156 L515 117 M515 117 L483 98 M483 98 L431 76 M461 75 L490 81
        M490 81 L505 92 M505 92 L515 117 M515 117 L542 116 M542 116 L559 137 M550 156 L569 162 M569 162 L605 203
        M605 203 L628 234 M63 186 L62 156 M62 156 L49 144 M49 144 L30 154 M30 154 L33 177  M33 177 L45 186
        M45 186 L63 186 M178 191 L187 179 M187 179 L196 164 M196 164 L212 159 M212 159 L228 163 M228 163 L237 178
        M237 178 L234 189 M234 189 L226 201 M226 201 L198 205 M198 205 L178 191 M410 478 L439 446 M439 446 L447 385
"
vector-effect="non-scaling-stroke"/>
</g>
</svg>